<svg width="109" height="50" viewBox="0 0 109 50" fill="none" xmlns="http://www.w3.org/2000/svg">
<path d="M7.74117 1.44226C15.2468 1.79484 12.4686 11.5791 10.1412 16.4271C20.8323 8.49383 27.5962 21.6693 9.70486 23.038C-4.6957 24.1397 0.540951 1.44215 7.74117 1.44226Z" fill="white"/>
<path d="M8.03684 26.6116C14.3422 26.9927 12.0082 37.5701 10.0531 42.8111C19.0344 34.2348 24.7165 48.4782 9.68649 49.958C-2.41102 51.149 1.98815 26.6115 8.03684 26.6116Z" fill="white"/>
<path d="M64.4716 1.44226C71.9773 1.79484 69.1991 11.5791 66.8717 16.4271C77.5628 8.49383 84.3267 21.6693 66.4353 23.038C52.0348 24.1397 57.2714 1.44215 64.4716 1.44226Z" fill="white"/>
<path d="M34.2392 19.9954C34.2392 11.9344 43.054 12.395 43.054 20.456C43.054 28.7473 56.8718 25.5231 50.9159 12.1647C43.3412 -4.82444 34.2392 -3.26666 26.6155 12.1647C20.8978 22.2986 34.2392 28.2868 34.2392 19.9954Z" fill="white"/>
<path d="M36.3857 5.55203C36.6635 5.13536 37.3857 4.55203 38.0524 5.55203" stroke="#3931C5" stroke-width="0.480769" stroke-linecap="round"/>
<path d="M41.8187 6.0303C42.2675 5.80835 43.1847 5.66428 43.262 6.86364" stroke="#3931C5" stroke-width="0.480769" stroke-linecap="round"/>
<path d="M37.0711 6.70661C36.4518 7.36944 40.2738 15.409 42.2349 8.09019C39.523 9.91019 37.6905 6.04379 37.0711 6.70661Z" fill="#3931C5"/>
<path d="M30.8462 44.2606C30.8462 37.8525 37.8535 38.2187 37.8535 44.6268C37.8535 51.2179 48.8379 48.6548 44.1033 38.0356C38.0818 24.5302 30.8462 25.7685 24.7858 38.0356C20.2406 46.0916 30.8462 50.8519 30.8462 44.2606Z" fill="white"/>
<path d="M32.0303 32.1698C32.2511 31.8385 32.8252 31.3748 33.3552 32.1698" stroke="#3931C5" stroke-width="0.480769" stroke-linecap="round"/>
<path d="M36.3499 32.5498C36.7067 32.3734 37.4358 32.2588 37.4973 33.2123" stroke="#3931C5" stroke-width="0.480769" stroke-linecap="round"/>
<path d="M32.5744 33.0875C32.0821 33.6144 35.1204 40.0055 36.6793 34.1874C34.5235 35.6342 33.0668 32.5606 32.5744 33.0875Z" fill="#3931C5"/>
<path d="M90.1796 19.9954C90.1796 11.9344 98.9944 12.395 98.9944 20.456C98.9944 28.7473 112.812 25.5231 106.856 12.1647C99.2816 -4.82444 90.1796 -3.26666 82.556 12.1647C76.8382 22.2986 90.1796 28.2868 90.1796 19.9954Z" fill="white"/>
<path d="M92.3262 5.55203C92.6039 5.13536 93.3262 4.55203 93.9928 5.55203" stroke="#3931C5" stroke-width="0.480769" stroke-linecap="round"/>
<path d="M97.7591 6.0303C98.208 5.80835 99.1251 5.66428 99.2025 6.86364" stroke="#3931C5" stroke-width="0.480769" stroke-linecap="round"/>
<path d="M93.0125 6.70661C92.3932 7.36944 96.2152 15.409 98.1763 8.09019C95.4644 9.91019 93.6319 6.04379 93.0125 6.70661Z" fill="#3931C5"/>
<path d="M56.635 37.3339C63.8316 24.7401 47.7682 26.1537 49.3101 37.3339C49.3101 46.2008 55.2216 48.1731 59.2053 48.257C68.9719 48.4626 67.8198 38.8759 67.0443 34.3781C65.7592 26.9247 60.2954 29.8804 62.2895 36.3057C64.6026 43.7592 53.6977 42.4741 56.635 37.3339Z" fill="white"/>
<path d="M71.5412 39.7194C71.3356 30.0556 78.9946 27.6396 82.8498 27.6396C87.3733 27.6396 85.677 34.117 82.4643 34.322C76.4244 34.7076 76.3318 38.0488 76.81 40.1049C78.095 45.6307 83.3103 40.2417 80.9222 39.9764C78.6091 39.7194 78.8316 38.5029 79.2516 37.9203C83.2353 32.3944 87.0906 36.4964 87.0906 39.7194C87.0906 47.0443 71.5412 55.7828 71.5412 39.7194Z" fill="white"/>
<path d="M98.17 34.0973V32.0089C98.1425 27.2541 91.2031 27.1256 91.2031 32.0089V38.9483H108.423V32.0089C108.423 26.8686 101.325 26.2261 101.325 32.0089V34.0973C101.325 36.8431 98.17 36.8431 98.17 34.0973Z" fill="white"/>
<path d="M98.17 43.7993V45.8877C98.1425 50.6425 91.2031 50.771 91.2031 45.8877V38.9483H108.423V45.8877C108.423 51.028 101.325 51.6705 101.325 45.8877V43.7993C101.325 41.0535 98.17 41.0535 98.17 43.7993Z" fill="white"/>
</svg>
