<svg width="108" height="60" viewBox="0 0 108 60" fill="none" xmlns="http://www.w3.org/2000/svg">
<path d="M32.9274 32.0479H38.8541L39.0736 18.658L54 7.90221L69.1459 18.658V26.5602L75.0725 31.3893V15.5849L54 0L32.9274 15.5849V32.0479Z" fill="#53AAA3"/>
<path d="M39.0736 32.4869H50.9269V38.194H39.0736V32.4869Z" fill="#53AAA3"/>
<path d="M50.9269 32.0479V21.2921L57.0731 25.9017V32.0479H50.9269Z" fill="#53AAA3"/>
<path d="M57.0731 25.4627V18.219L68.7069 26.5602V34.2429L57.0731 25.4627Z" fill="#53AAA3"/>
<path d="M3.80176 46.6509H5.08026L8.40917 55.2144H6.98594L6.08134 52.8866H2.77656L1.88402 55.2144H0.448732L3.80176 46.6509ZM5.816 51.8855L4.44101 48.1344L3.01778 51.8855H5.816ZM9.21693 55.2144V46.6509H10.5678V55.2144H9.21693ZM22.0123 46.6509V55.2144H20.6494V51.4392H16.3314V55.2144H14.9806V46.6509H16.3314V50.2331H20.6494V46.6509H22.0123ZM26.2523 55.335C25.7538 55.335 25.3075 55.2506 24.9135 55.0817C24.5195 54.9048 24.1778 54.6636 23.8883 54.3581C23.6069 54.0525 23.3898 53.7068 23.237 53.3208C23.0842 52.9268 23.0079 52.5087 23.0079 52.0664C23.0079 51.6242 23.0842 51.2061 23.237 50.8121C23.3898 50.418 23.6069 50.0723 23.8883 49.7748C24.1778 49.4692 24.5195 49.232 24.9135 49.0632C25.3156 48.8863 25.7618 48.7978 26.2523 48.7978C26.7428 48.7978 27.1851 48.8863 27.5791 49.0632C27.9811 49.232 28.3229 49.4692 28.6043 49.7748C28.8938 50.0723 29.1149 50.418 29.2677 50.8121C29.4204 51.2061 29.4968 51.6242 29.4968 52.0664C29.4968 52.5087 29.4204 52.9268 29.2677 53.3208C29.1149 53.7068 28.8938 54.0525 28.6043 54.3581C28.3229 54.6636 27.9811 54.9048 27.5791 55.0817C27.1851 55.2506 26.7428 55.335 26.2523 55.335ZM24.3708 52.0785C24.3708 52.4805 24.4552 52.8424 24.6241 53.164C24.7929 53.4856 25.0181 53.7389 25.2995 53.9239C25.5809 54.1088 25.8985 54.2013 26.2523 54.2013C26.5981 54.2013 26.9117 54.1088 27.1931 53.9239C27.4826 53.7309 27.7117 53.4736 27.8806 53.1519C28.0495 52.8223 28.1339 52.4604 28.1339 52.0664C28.1339 51.6644 28.0495 51.3025 27.8806 50.9809C27.7117 50.6593 27.4826 50.406 27.1931 50.221C26.9117 50.0281 26.5981 49.9316 26.2523 49.9316C25.8985 49.9316 25.5809 50.0281 25.2995 50.221C25.0181 50.414 24.7929 50.6713 24.6241 50.993C24.4552 51.3066 24.3708 51.6684 24.3708 52.0785ZM40.0713 55.2144H38.7445V51.6805C38.7445 51.0935 38.6481 50.6633 38.4551 50.3899C38.2621 50.1165 37.9807 49.9798 37.6108 49.9798C37.2409 49.9798 36.8951 50.1205 36.5735 50.402C36.2599 50.6754 36.0388 51.0332 35.9101 51.4754V55.2144H34.5834V51.6805C34.5834 51.0935 34.4869 50.6633 34.2939 50.3899C34.101 50.1165 33.8235 49.9798 33.4617 49.9798C33.0918 49.9798 32.7461 50.1165 32.4244 50.3899C32.1108 50.6633 31.8857 51.0211 31.749 51.4634V55.2144H30.4223V48.9064H31.6284V50.1728C31.8777 49.7306 32.2033 49.3928 32.6054 49.1597C33.0154 48.9184 33.4818 48.7978 34.0045 48.7978C34.5271 48.7978 34.9372 48.9345 35.2347 49.2079C35.5403 49.4813 35.7292 49.823 35.8016 50.2331C36.075 49.7667 36.4087 49.4129 36.8027 49.1717C37.2047 48.9225 37.663 48.7978 38.1777 48.7978C38.5475 48.7978 38.8571 48.8662 39.1064 49.0029C39.3556 49.1396 39.5486 49.3285 39.6853 49.5697C39.822 49.8029 39.9185 50.0763 39.9748 50.3899C40.0391 50.6955 40.0713 51.0211 40.0713 51.3669V55.2144ZM44.2074 55.335C43.7169 55.335 43.2706 55.2506 42.8686 55.0817C42.4746 54.9048 42.1328 54.6676 41.8434 54.3701C41.5539 54.0646 41.3288 53.7188 41.1679 53.3329C41.0152 52.9389 40.9388 52.5207 40.9388 52.0785C40.9388 51.4835 41.0755 50.9407 41.3489 50.4502C41.6223 49.9517 42.0042 49.5537 42.4947 49.2561C42.9852 48.9506 43.5601 48.7978 44.2194 48.7978C44.8788 48.7978 45.4457 48.9506 45.9201 49.2561C46.4025 49.5537 46.7764 49.9477 47.0418 50.4382C47.3071 50.9286 47.4398 51.4553 47.4398 52.0182C47.4398 52.1147 47.4358 52.2071 47.4277 52.2956C47.4197 52.376 47.4117 52.4443 47.4036 52.5006H42.3499C42.3741 52.8705 42.4746 53.1962 42.6515 53.4776C42.8364 53.751 43.0696 53.9681 43.351 54.1289C43.6325 54.2817 43.934 54.3581 44.2556 54.3581C44.6094 54.3581 44.9431 54.2696 45.2567 54.0927C45.5783 53.9158 45.7954 53.6826 45.908 53.3932L47.0418 53.7188C46.9051 54.0244 46.696 54.3018 46.4146 54.551C46.1412 54.7923 45.8156 54.9852 45.4376 55.13C45.0597 55.2667 44.6496 55.335 44.2074 55.335ZM42.3138 51.6202H46.1251C46.101 51.2583 45.9965 50.9407 45.8115 50.6673C45.6346 50.3859 45.4055 50.1688 45.124 50.016C44.8506 49.8552 44.5451 49.7748 44.2074 49.7748C43.8777 49.7748 43.5722 49.8552 43.2907 50.016C43.0173 50.1688 42.7922 50.3859 42.6153 50.6673C42.4384 50.9407 42.3379 51.2583 42.3138 51.6202ZM51.1683 55.2144V46.6509H52.5192V55.2144H51.1683ZM59.6911 55.2144H58.3644V51.6805C58.3644 51.0935 58.2679 50.6633 58.0749 50.3899C57.89 50.1165 57.6126 49.9798 57.2427 49.9798C56.9854 49.9798 56.7281 50.0441 56.4708 50.1728C56.2215 50.3015 55.9964 50.4784 55.7953 50.7035C55.5943 50.9206 55.4496 51.1739 55.3611 51.4634V55.2144H54.0344V48.9064H55.2405V50.1728C55.4013 49.8914 55.6104 49.6501 55.8677 49.4491C56.1331 49.2401 56.4306 49.0792 56.7602 48.9667C57.0899 48.8541 57.4397 48.7978 57.8096 48.7978C58.1875 48.7978 58.4971 48.8662 58.7383 49.0029C58.9876 49.1396 59.1805 49.3285 59.3172 49.5697C59.462 49.8029 59.5585 50.0763 59.6067 50.3899C59.663 50.6955 59.6911 51.0211 59.6911 51.3669V55.2144ZM63.2232 55.335C62.6925 55.335 62.19 55.2506 61.7156 55.0817C61.2412 54.9048 60.8351 54.6435 60.4974 54.2978L60.9919 53.4052C61.3537 53.7269 61.7156 53.96 62.0774 54.1048C62.4473 54.2495 62.8131 54.3219 63.175 54.3219C63.5449 54.3219 63.8464 54.2535 64.0796 54.1168C64.3128 53.9721 64.4294 53.763 64.4294 53.4897C64.4294 53.2886 64.369 53.1399 64.2484 53.0434C64.1278 52.9469 63.9509 52.8625 63.7177 52.7901C63.4926 52.7177 63.2192 52.6373 62.8976 52.5489C62.4473 52.4122 62.0694 52.2715 61.7638 52.1267C61.4583 51.974 61.2291 51.789 61.0763 51.5719C60.9235 51.3548 60.8472 51.0774 60.8472 50.7397C60.8472 50.3296 60.9517 49.9798 61.1607 49.6904C61.3698 49.4009 61.6593 49.1798 62.0292 49.027C62.4071 48.8742 62.8413 48.7978 63.3318 48.7978C63.7901 48.7978 64.2122 48.8702 64.5982 49.0149C64.9922 49.1516 65.338 49.3687 65.6355 49.6662L65.0686 50.5467C64.7872 50.2894 64.4977 50.1004 64.2002 49.9798C63.9107 49.8592 63.5971 49.7989 63.2594 49.7989C63.0664 49.7989 62.8815 49.823 62.7046 49.8713C62.5277 49.9115 62.3789 49.9919 62.2583 50.1125C62.1458 50.2251 62.0895 50.3859 62.0895 50.5949C62.0895 50.7638 62.1377 50.9005 62.2342 51.005C62.3307 51.1096 62.4754 51.198 62.6684 51.2704C62.8614 51.3427 63.0986 51.4232 63.38 51.5116C63.8705 51.6563 64.2886 51.8011 64.6344 51.9458C64.9801 52.0825 65.2455 52.2634 65.4304 52.4886C65.6234 52.7057 65.7199 53.0072 65.7199 53.3932C65.7199 54.0043 65.4907 54.4827 65.0324 54.8285C64.5821 55.1662 63.9791 55.335 63.2232 55.335ZM70.2354 55.335C69.7288 55.335 69.2825 55.2144 68.8966 54.9732C68.5106 54.732 68.2051 54.4184 67.9799 54.0324V57.7835H66.6532V48.9064H67.8231V50.0401C68.0643 49.6622 68.3779 49.3607 68.7639 49.1355C69.1499 48.9104 69.58 48.7978 70.0545 48.7978C70.4887 48.7978 70.8867 48.8863 71.2485 49.0632C71.6104 49.232 71.9239 49.4692 72.1893 49.7748C72.4546 50.0803 72.6597 50.4301 72.8044 50.8241C72.9572 51.2101 73.0336 51.6202 73.0336 52.0544C73.0336 52.6574 72.913 53.2082 72.6717 53.7068C72.4386 54.2053 72.1089 54.6033 71.6827 54.9008C71.2646 55.1903 70.7821 55.335 70.2354 55.335ZM69.8012 54.2013C70.0826 54.2013 70.3359 54.141 70.561 54.0203C70.7942 53.8997 70.9912 53.7389 71.152 53.5379C71.3209 53.3369 71.4495 53.1077 71.538 52.8504C71.6264 52.5931 71.6707 52.3277 71.6707 52.0544C71.6707 51.7649 71.6224 51.4915 71.5259 51.2342C71.4294 50.9769 71.2887 50.7517 71.1038 50.5588C70.9269 50.3658 70.7178 50.213 70.4766 50.1004C70.2434 49.9879 69.9861 49.9316 69.7047 49.9316C69.5358 49.9316 69.3589 49.9637 69.174 50.0281C68.989 50.0924 68.8162 50.1808 68.6553 50.2934C68.4945 50.406 68.3538 50.5387 68.2332 50.6914C68.1126 50.8442 68.0282 51.005 67.9799 51.1739V52.8263C68.0925 53.0836 68.2412 53.3168 68.4262 53.5258C68.6111 53.7269 68.8242 53.8917 69.0654 54.0203C69.3067 54.141 69.5519 54.2013 69.8012 54.2013ZM76.8341 55.335C76.3436 55.335 75.8973 55.2506 75.4953 55.0817C75.1013 54.9048 74.7595 54.6676 74.47 54.3701C74.1806 54.0646 73.9554 53.7188 73.7946 53.3329C73.6418 52.9389 73.5654 52.5207 73.5654 52.0785C73.5654 51.4835 73.7021 50.9407 73.9755 50.4502C74.2489 49.9517 74.6309 49.5537 75.1214 49.2561C75.6118 48.9506 76.1868 48.7978 76.8461 48.7978C77.5055 48.7978 78.0723 48.9506 78.5468 49.2561C79.0292 49.5537 79.4031 49.9477 79.6685 50.4382C79.9338 50.9286 80.0665 51.4553 80.0665 52.0182C80.0665 52.1147 80.0625 52.2071 80.0544 52.2956C80.0464 52.376 80.0383 52.4443 80.0303 52.5006H74.9766C75.0007 52.8705 75.1013 53.1962 75.2781 53.4776C75.4631 53.751 75.6963 53.9681 75.9777 54.1289C76.2591 54.2817 76.5607 54.3581 76.8823 54.3581C77.2361 54.3581 77.5698 54.2696 77.8834 54.0927C78.205 53.9158 78.4221 53.6826 78.5347 53.3932L79.6685 53.7188C79.5318 54.0244 79.3227 54.3018 79.0413 54.551C78.7679 54.7923 78.4422 54.9852 78.0643 55.13C77.6864 55.2667 77.2763 55.335 76.8341 55.335ZM74.9404 51.6202H78.7518C78.7277 51.2583 78.6231 50.9407 78.4382 50.6673C78.2613 50.3859 78.0321 50.1688 77.7507 50.016C77.4773 49.8552 77.1718 49.7748 76.8341 49.7748C76.5044 49.7748 76.1988 49.8552 75.9174 50.016C75.644 50.1688 75.4189 50.3859 75.242 50.6673C75.0651 50.9407 74.9646 51.2583 74.9404 51.6202ZM83.7559 55.335C83.2654 55.335 82.8192 55.2506 82.4171 55.0817C82.0231 54.9048 81.6814 54.6636 81.3919 54.3581C81.1024 54.0525 80.8773 53.7027 80.7165 53.3087C80.5637 52.9147 80.4873 52.4966 80.4873 52.0544C80.4873 51.4593 80.62 50.9166 80.8853 50.4261C81.1587 49.9356 81.5367 49.5416 82.0191 49.2441C82.5096 48.9466 83.0885 48.7978 83.7559 48.7978C84.3992 48.7978 84.958 48.9426 85.4324 49.232C85.9149 49.5135 86.2687 49.8914 86.4938 50.3658L85.2033 50.7759C85.0585 50.5105 84.8535 50.3055 84.5882 50.1607C84.3308 50.008 84.0454 49.9316 83.7318 49.9316C83.378 49.9316 83.0564 50.024 82.7669 50.209C82.4855 50.3859 82.2603 50.6352 82.0915 50.9568C81.9307 51.2704 81.8502 51.6362 81.8502 52.0544C81.8502 52.4564 81.9347 52.8223 82.1035 53.1519C82.2724 53.4736 82.4975 53.7309 82.779 53.9239C83.0684 54.1088 83.3901 54.2013 83.7439 54.2013C83.961 54.2013 84.17 54.1651 84.3711 54.0927C84.5801 54.0123 84.761 53.9078 84.9138 53.7791C85.0666 53.6424 85.1751 53.4937 85.2395 53.3329L86.5421 53.7188C86.4054 54.0324 86.2003 54.3098 85.927 54.551C85.6616 54.7923 85.344 54.9852 84.9741 55.13C84.6123 55.2667 84.2062 55.335 83.7559 55.335ZM90.8933 54.8888C90.7807 54.945 90.64 55.0054 90.4712 55.0697C90.3023 55.134 90.1093 55.1903 89.8922 55.2385C89.6832 55.2868 89.4661 55.3109 89.2409 55.3109C88.9675 55.3109 88.7142 55.2627 88.4811 55.1662C88.2479 55.0697 88.0589 54.9169 87.9142 54.7078C87.7775 54.4907 87.7091 54.2133 87.7091 53.8756V49.9316H86.8769V48.9064H87.7091V46.8318H89.0359V48.9064H90.4109V49.9316H89.0359V53.4535C89.052 53.6706 89.1203 53.8314 89.2409 53.9359C89.3696 54.0404 89.5264 54.0927 89.7113 54.0927C89.8962 54.0927 90.0731 54.0606 90.242 53.9962C90.4109 53.9319 90.5355 53.8796 90.6159 53.8394L90.8933 54.8888ZM91.561 55.2144V48.9064H92.8877V55.2144H91.561ZM91.561 47.8691V46.4097H92.8877V47.8691H91.561ZM97.0652 55.335C96.5666 55.335 96.1204 55.2506 95.7264 55.0817C95.3324 54.9048 94.9906 54.6636 94.7011 54.3581C94.4197 54.0525 94.2026 53.7068 94.0498 53.3208C93.8971 52.9268 93.8207 52.5087 93.8207 52.0664C93.8207 51.6242 93.8971 51.2061 94.0498 50.8121C94.2026 50.418 94.4197 50.0723 94.7011 49.7748C94.9906 49.4692 95.3324 49.232 95.7264 49.0632C96.1284 48.8863 96.5747 48.7978 97.0652 48.7978C97.5556 48.7978 97.9979 48.8863 98.3919 49.0632C98.7939 49.232 99.1357 49.4692 99.4171 49.7748C99.7066 50.0723 99.9277 50.418 100.08 50.8121C100.233 51.2061 100.31 51.6242 100.31 52.0664C100.31 52.5087 100.233 52.9268 100.08 53.3208C99.9277 53.7068 99.7066 54.0525 99.4171 54.3581C99.1357 54.6636 98.7939 54.9048 98.3919 55.0817C97.9979 55.2506 97.5556 55.335 97.0652 55.335ZM95.1836 52.0785C95.1836 52.4805 95.268 52.8424 95.4369 53.164C95.6057 53.4856 95.8309 53.7389 96.1123 53.9239C96.3937 54.1088 96.7114 54.2013 97.0652 54.2013C97.4109 54.2013 97.7245 54.1088 98.0059 53.9239C98.2954 53.7309 98.5246 53.4736 98.6934 53.1519C98.8623 52.8223 98.9467 52.4604 98.9467 52.0664C98.9467 51.6644 98.8623 51.3025 98.6934 50.9809C98.5246 50.6593 98.2954 50.406 98.0059 50.221C97.7245 50.0281 97.4109 49.9316 97.0652 49.9316C96.7114 49.9316 96.3937 50.0281 96.1123 50.221C95.8309 50.414 95.6057 50.6713 95.4369 50.993C95.268 51.3066 95.1836 51.6684 95.1836 52.0785ZM106.892 55.2144H105.565V51.6805C105.565 51.0935 105.469 50.6633 105.276 50.3899C105.091 50.1165 104.813 49.9798 104.443 49.9798C104.186 49.9798 103.929 50.0441 103.671 50.1728C103.422 50.3015 103.197 50.4784 102.996 50.7035C102.795 50.9206 102.65 51.1739 102.562 51.4634V55.2144H101.235V48.9064H102.441V50.1728C102.602 49.8914 102.811 49.6501 103.068 49.4491C103.334 49.2401 103.631 49.0792 103.961 48.9667C104.291 48.8541 104.64 48.7978 105.01 48.7978C105.388 48.7978 105.698 48.8662 105.939 49.0029C106.188 49.1396 106.381 49.3285 106.518 49.5697C106.663 49.8029 106.759 50.0763 106.807 50.3899C106.864 50.6955 106.892 51.0211 106.892 51.3669V55.2144Z" fill="#121918"/>
</svg>
