<svg width="610" height="266" viewBox="0 0 610 266" fill="none" xmlns="http://www.w3.org/2000/svg">
<g clip-path="url(#clip0_1977_9039)">
<path d="M8.34626 205.619C30.5245 120.394 98.3595 163.007 60.5288 231.186C125.75 199.539 136.19 257.494 67.0549 265.289C6.52624 272.096 2.7042 228.341 8.34626 205.619Z" fill="white"/>
<path d="M294.724 206.554C316.823 146.11 259.078 137.469 251.395 208.282C244.908 268.078 331.474 294.195 353.963 223.381C376.454 152.567 315.575 150.864 315.575 206.541C315.575 223.602 312.091 230.449 303.68 230.449C295.27 230.449 289.68 220.38 294.737 206.541L294.724 206.554Z" fill="white"/>
<path d="M437.31 189.383C480.55 195.489 483.668 141.245 410.959 163.593C346.246 189.409 368.103 281.786 452.877 263.661C476.175 258.686 488.967 251.604 476.175 204.922C473.453 196.659 432.025 204.052 440.561 216.876C459.921 245.979 409.48 240.716 407.246 220.448C405.013 200.193 420.289 186.966 437.324 189.37L437.31 189.383Z" fill="white"/>
<path d="M495.625 181.012C495.625 145.711 545.818 155.794 540.164 181.012C537.03 195.031 558.987 201.19 558.987 181.012C558.987 154.676 603.526 148.505 603.526 181.012V242.104C603.526 267.322 558.364 280.211 558.364 241.545C558.364 224.29 562.121 216.586 549.575 216.586C537.03 216.586 540.164 225.772 540.164 242.117C540.164 283.03 495.625 262.853 495.625 242.117V181.025V181.012Z" fill="white"/>
<path d="M232.574 219.445C193.878 132.308 167.305 145.78 136.101 211.753C108.533 270.022 167.353 281.417 169.499 245.611C171.124 218.367 198.352 217.937 198.352 245.611C198.352 280.273 251.522 262.084 232.586 219.445H232.574ZM167.79 183.938C166.76 182.989 169.221 180.157 171.79 180.248C174.227 180.339 176.833 182.989 175.803 183.938C174.772 184.886 173.342 182.209 171.766 182.183C170.99 182.17 170.348 182.431 169.73 183.028C168.99 183.756 168.347 184.457 167.79 183.938ZM171.39 190.278C173.912 187.38 181.392 204.27 192.447 196.319C184.458 228.292 168.869 193.175 171.39 190.278ZM198.145 191.226C196.836 191.616 196.594 188.549 195.175 187.809C194.472 187.445 193.781 187.393 192.993 187.653C192.035 187.978 191.187 188.329 190.883 187.601C190.326 186.276 193.672 184.821 195.975 186.068C198.145 187.25 199.467 190.836 198.157 191.226H198.145Z" fill="white"/>
<path d="M2.49835 63.2792C32.0612 -50.3624 122.522 6.4655 72.0742 97.3675C159.036 55.159 172.954 132.456 80.7674 142.833C0.0600181 151.926 -5.02867 93.5896 2.49835 63.2792Z" fill="white"/>
<path d="M313.252 63.2792C342.815 -50.3624 433.276 6.4655 382.828 97.3675C469.79 55.159 483.709 132.456 391.522 142.833C310.814 151.926 305.725 93.5896 313.252 63.2792Z" fill="white"/>
<path d="M293.808 81.7095C242.211 -34.4797 206.764 -16.501 165.163 71.4511C128.401 149.145 206.851 164.341 209.696 116.596C211.863 80.2572 248.162 79.6915 248.162 116.596C248.162 162.812 319.058 138.566 293.808 81.7095ZM208.858 42.0369C208.208 43.3211 205.825 43.0307 206.374 41.456C207.371 38.5666 210.852 33.919 216.803 38.5054C218.334 39.6826 216.384 41.3031 215.373 40.5081C213.22 38.8418 210.78 38.2149 208.873 42.0369H208.858ZM240.94 49.5586C238.47 56.6981 229.875 68.1489 215.185 56.8664C213.192 54.6954 215.026 50.8734 218.969 53.931C224.285 58.0588 231.797 58.869 236.303 49.314C238.47 44.7276 241.807 47.0208 240.94 49.5586ZM243.266 35.4478C241.59 33.2463 239.394 31.9774 236.607 35.1421C235.668 36.2122 233.429 35.2797 234.339 33.9037C236.015 31.3812 240.507 27.8496 245.129 33.9037C246.314 35.4478 244.046 36.5027 243.251 35.4478H243.266Z" fill="white"/>
<path d="M471.569 81.7095C523.166 -34.4797 558.614 -16.501 600.215 71.4511C636.977 149.145 558.527 164.341 555.681 116.596C553.514 80.2572 517.215 79.6915 517.215 116.596C517.215 162.812 446.32 138.566 471.569 81.7095ZM556.519 42.0369C557.169 43.3211 559.553 43.0307 559.004 41.456C558.007 38.5666 554.526 33.919 548.575 38.5054C547.043 39.6826 548.993 41.3031 550.005 40.5081C552.157 38.8418 554.598 38.2149 556.505 42.0369H556.519ZM525 51C527.471 58.1395 536.81 68.7826 551.5 57.5C553.494 55.3291 552.518 50.9424 548.575 54C543.259 58.1278 533.581 58.869 529.074 49.314C526.907 44.7276 523.617 47 525 51ZM522.112 35.4478C523.787 33.2463 525.983 31.9774 528.771 35.1421C529.709 36.2122 531.949 35.2796 531.039 33.9037C529.363 31.3812 524.87 27.8496 520.249 33.9037C519.064 35.4478 521.332 36.5027 522.126 35.4478H522.112Z" fill="white"/>
</g>
<defs>
<clipPath id="clip0_1977_9039">
<rect width="610" height="266" fill="white"/>
</clipPath>
</defs>
</svg>
